<svg width="967" height="967" viewBox="0 0 967 967" fill="none" xmlns="http://www.w3.org/2000/svg">
<circle cx="483.5" cy="483.5" r="483.5" fill="url(#paint0_linear_0_1)"/>
<path d="M425.39 348.186C406.901 352.159 390.446 363.9 381.292 379.528C378.243 384.799 376.021 387.387 372.697 389.605C362.067 396.632 352.913 408.094 347.459 421.129C343.947 429.542 341.451 443.226 342.004 451.269L342.466 457.276L335.439 461.62C315.472 473.914 300.585 492.312 293.096 514.039C289.859 523.563 287.271 537.983 287.271 546.579C287.271 550.369 286.622 552.957 285.054 555.824C281.543 562.202 277.565 572.928 275.16 582.538C273.313 590.119 273.034 593.539 273.034 607.964C273.125 622.846 273.313 625.53 275.439 633.481C279.878 649.753 285.886 662.418 294.943 674.621L299.104 680.076L298.18 685.16C296.795 692.832 297.81 709.378 300.215 717.055C305.025 732.216 315.838 747.286 328.228 755.79C332.572 758.748 333.404 759.854 334.794 764.477C343.577 792.582 371.033 813.01 405.977 817.358C417.257 818.835 431.124 818.099 441.201 815.511C455.713 811.903 472.447 801.552 480.027 791.567C481.6 789.532 482.985 787.868 483.264 787.868C483.543 787.868 485.573 790.085 487.795 792.861C499.075 807.002 519.873 816.617 542.062 818.007C583.481 820.504 621.287 797.945 631.735 764.482C633.12 759.859 633.952 758.748 638.3 755.795C650.691 747.291 661.504 732.221 666.314 717.06C668.81 709.109 669.825 692.466 668.252 685.256L667.237 680.355L671.489 674.717C697.098 640.605 701.167 594.934 681.936 556.661C679.81 552.409 679.349 550.004 678.882 541.87C677.126 508.402 658.546 477.709 629.791 460.793L623.966 457.281L624.428 451.274C625.443 438.7 620.547 421.043 612.687 408.84C608.435 402.183 600.022 393.679 593.827 389.518C590.777 387.575 588.372 384.987 586.617 381.75C579.777 369.268 570.162 360.302 556.756 353.736C532.812 342.087 505.818 345.415 489.176 362.149L483.259 368.065L477.343 362.149C464.678 349.48 444.433 344.025 425.39 348.186ZM453.033 373.885C461.817 378.229 467.18 386.276 469.859 399.215C471.893 408.922 471.893 750.239 469.859 759.022C464.313 782.226 443.418 795.443 414.481 793.967C408.195 793.688 401.538 792.673 397.286 791.47C376.3 785.463 360.306 770.672 356.795 753.938C354.852 744.785 358.738 728.7 365.208 719.272C376.949 702.077 400.984 698.378 415.501 711.413C421.047 716.406 423.914 722.139 425.208 730.273C426.41 738.132 427.334 740.071 431.033 742.014C435.193 744.323 439.907 743.308 443.144 739.426C445.453 736.651 445.549 736.098 445.087 729.537C444.164 717.334 438.709 705.775 430.018 697.55L426.045 693.851L431.499 688.027C441.759 677.305 447.954 658.815 444.443 649.662C442.317 644.025 433.351 642.264 429.003 646.612C427.247 648.368 426.324 650.682 425.395 656.045C423.731 665.564 421.326 670.283 415.227 675.828C409.219 681.283 404.967 682.764 390.73 684.15C365.4 686.555 348.204 700.792 340.253 725.751L337.757 733.611L333.414 728.71C328.608 723.346 323.986 714.66 322.504 708.281C321.023 701.995 321.302 689.883 322.966 684.246C325.371 676.295 324.448 672.322 318.806 666.03C303.269 648.734 295.78 627.56 296.795 603.803C297.348 589.104 299.662 580.504 306.223 567.286C311.307 557.209 311.307 557.026 311.307 548.705C311.307 533.823 314.818 520.6 322.124 508.118C327.3 499.152 339.691 486.488 348.103 481.678L353.837 478.349L360.585 484.915C367.887 492.216 376.487 497.209 386.006 499.893L391.74 501.466V507.57C391.74 510.898 392.201 515.521 392.755 517.83C395.342 529.2 404.496 541.865 410.042 541.865C414.202 541.865 417.343 540.388 419.104 537.613C421.783 533.64 421.23 529.85 416.978 523.563C410.138 513.303 409.489 502.947 415.034 491.947C418.825 484.549 424.558 480.023 433.524 477.156C440.364 475.03 443.51 471.793 443.51 466.988C443.51 463.568 440.46 459.128 437.04 457.743C428.719 454.323 407.271 465.973 400.061 477.988C397.843 481.687 397.565 481.87 394.053 481.317C388.137 480.485 377.507 474.847 373.808 470.499C368.632 464.583 366.689 459.59 366.136 451.456C364.933 433.337 374.919 415.218 390.821 406.252C395.443 403.664 396.275 402.741 399.878 395.53C404.409 386.377 411.711 378.984 419.844 375.098C427.146 371.678 430.936 370.937 439.907 371.12C446.376 371.389 448.781 371.851 453.033 373.885ZM537.714 371.851C550.008 374.626 560.547 383.313 566.65 395.516C570.258 402.726 571.09 403.65 575.712 406.238C591.797 415.203 601.691 433.51 600.301 451.63C599.748 459.763 597.805 464.573 592.721 470.49C589.022 474.833 578.392 480.475 572.475 481.307C568.964 481.86 568.685 481.678 566.468 477.979C559.257 465.959 537.81 454.314 529.488 457.733C526.068 459.119 523.019 463.558 523.019 466.978C523.019 471.509 526.256 475.112 531.614 476.685C539.104 478.811 546.04 483.433 549.551 488.517C557.04 499.609 557.131 512.279 549.738 523.092C545.761 528.825 545.02 531.413 546.131 535.016C547.608 539.359 551.124 541.855 555.65 541.855C558.887 541.855 559.902 541.302 563.327 537.786C567.579 533.347 572.293 524.381 573.774 517.815C574.327 515.506 574.789 510.884 574.789 507.555V501.452L580.522 499.879C590.046 497.199 598.642 492.207 605.943 484.9L612.692 478.335L618.42 481.663C626.833 486.473 639.224 499.138 644.399 508.104C651.701 520.586 655.217 533.804 655.217 548.691C655.217 557.012 655.217 557.195 660.301 567.272C666.679 580.119 669.084 589.181 669.729 603.048C670.84 626.901 664.366 645.853 648.651 664.713C641.533 673.404 640.979 675.622 643.659 684.587C645.414 690.321 645.414 702.615 643.659 709.085C641.812 716.204 638.021 723.231 633.028 728.777L628.68 733.587L626.646 726.747C623.317 715.747 618.603 707.704 610.835 699.936C600.114 689.21 590.311 685.145 571.451 683.481C560.912 682.558 555.737 680.614 550.465 675.439C545.289 670.446 542.605 665.083 541.408 657.411C540.114 649.09 538.728 646.593 534.38 644.838C528.093 642.158 522.177 645.949 521.436 653.25C520.234 663.698 525.967 678.58 535.03 688.012L540.484 693.837L536.506 697.536C527.815 705.761 522.36 717.319 521.436 729.522C520.975 736.088 521.066 736.641 523.38 739.412C525.967 742.558 530.59 744.034 533.918 743.019C537.805 741.725 540.296 738.027 540.946 732.572C541.961 723.144 544.087 718.431 549.729 712.788C553.428 709.09 556.477 707.055 560.45 705.578C570.806 701.6 584.856 704.102 594.654 711.586C604.823 719.354 612.591 741.817 609.536 754.756C605.559 771.211 589.844 785.631 569.229 791.456C559.152 794.323 543.991 794.876 534.096 792.933C514.313 788.955 500.816 776.66 496.655 759.003C494.621 750.311 494.529 409.831 496.564 399.196C500.171 380.706 510.71 371 527.627 370.908C530.965 370.927 535.496 371.298 537.714 371.851Z" fill="white"/>
<path d="M336.92 562.202C333.409 564.977 332.115 569.6 333.87 573.573C335.443 577.454 337.478 578.657 345.333 580.321C355.313 582.356 362.158 587.623 366.963 596.685C368.719 599.922 369.089 602.048 369.089 609.349C369.089 617.579 368.907 618.594 365.948 624.232C362.158 631.629 362.437 635.602 366.872 639.301C372.047 643.645 378.334 642.168 382.495 635.602C387.026 628.392 389.335 620.162 389.335 610.735C389.426 606.112 389.243 601.119 388.964 599.643C388.502 596.964 388.685 596.776 393.587 595.203C397.098 594.001 401.446 593.448 407.454 593.448C414.943 593.448 417.531 593.818 424.371 596.223C431.028 598.532 432.966 598.902 435.559 598.166C442.399 596.319 444.895 588.181 440.272 582.726C437.685 579.677 428.349 575.886 418.733 574.131C410.042 572.466 395.621 573.577 386.655 576.439L379.258 578.748L374.635 574.313C372.139 571.817 367.978 568.488 365.39 566.916C355.592 560.72 341.634 558.503 336.92 562.202Z" fill="white"/>
<path d="M607.973 544.544C606.492 546.026 605.289 548.056 605.289 548.984C605.102 563.866 602.61 573.669 596.968 582.356L593.274 588.084L588.93 585.867C581.629 582.26 575.063 580.691 566.468 580.691C555.838 580.691 549.455 582.635 546.963 586.516C544.467 590.403 545.116 595.853 548.44 599.09C550.566 601.216 551.398 601.495 556.112 601.124C573.678 599.922 579.873 601.495 587.266 609.446C594.202 616.843 595.587 620.908 595.4 632.928C595.217 644.39 595.958 646.516 601.133 648.739C603.721 649.753 604.924 649.845 607.699 648.83C613.062 647.074 614.909 643.193 615.28 632.466C615.741 622.207 614.077 614.53 610.013 606.949L607.425 602.048L611.124 597.146C615.563 591.23 620.46 581.245 622.495 573.755C623.327 570.706 624.159 563.77 624.438 558.315L624.991 548.426L621.662 545.097C618.978 542.418 617.781 541.86 614.544 541.86C611.484 541.86 610.099 542.418 607.973 544.544Z" fill="white"/>
<path d="M163.774 262.811C155.831 262.811 149.38 268.358 149.38 275.169V414.702C149.38 421.513 155.831 427.054 163.774 427.054C171.712 427.054 178.168 421.503 178.168 414.702L178.163 275.169C178.158 268.358 171.707 262.811 163.774 262.811Z" fill="white"/>
<path d="M136.985 294.25C132.42 294.25 128.699 297.41 128.699 301.297V389.056C128.699 392.948 132.42 396.098 136.985 396.098C141.549 396.098 145.271 392.948 145.271 389.056L145.276 301.297C145.276 297.405 141.56 294.25 136.985 294.25Z" fill="white"/>
<path d="M762.733 228.664C751.161 228.664 741.74 236.789 741.74 246.765V332.435C617.42 297.988 486.176 284.13 357.308 300.605C313.066 306.262 266.807 314.285 224.278 329.284V247.212C224.278 237.24 214.853 229.111 203.275 229.111C191.696 229.111 182.271 237.236 182.271 247.212V442.849C182.271 452.825 191.696 460.936 203.275 460.936C214.853 460.936 224.278 452.826 224.278 442.849V349.891C265.023 334.652 314.596 325.633 358.198 319.812C486.571 302.678 618.093 317.7 741.727 352.623L741.732 442.378C741.732 452.369 751.158 460.479 762.725 460.479C774.313 460.479 783.734 452.369 783.734 442.378V246.778C783.734 236.797 774.309 228.673 762.725 228.673L762.733 228.664Z" fill="white"/>
<path d="M802.239 262.898C794.296 262.898 787.84 268.449 787.84 275.255V414.788C787.84 421.599 794.296 427.15 802.239 427.15C810.177 427.15 816.633 421.599 816.633 414.788V275.243C816.633 268.446 810.172 262.895 802.239 262.895V262.898Z" fill="white"/>
<path d="M829.012 294.102C824.448 294.102 820.727 297.262 820.727 301.149V388.893C820.727 392.785 824.448 395.95 829.012 395.95C833.587 395.95 837.298 392.785 837.298 388.893V301.149C837.298 297.263 833.582 294.102 829.012 294.102Z" fill="white"/>
<defs>
<linearGradient id="paint0_linear_0_1" x1="127" y1="144.5" x2="820.5" y2="822" gradientUnits="userSpaceOnUse">
<stop stop-color="#0047FF"/>
<stop offset="1" stop-color="#00E0FF"/>
</linearGradient>
</defs>
</svg>
