<svg width="967" height="981" viewBox="0 0 967 981" fill="none" xmlns="http://www.w3.org/2000/svg">
<circle cx="483.5" cy="497.5" r="483.5" fill="url(#paint0_linear_0_1)"/>
<path d="M425.39 341.186C406.901 345.159 390.446 356.9 381.292 372.528C378.243 377.799 376.021 380.387 372.697 382.605C362.067 389.632 352.913 401.094 347.459 414.129C343.947 422.542 341.451 436.226 342.004 444.269L342.466 450.276L335.439 454.62C315.472 466.914 300.585 485.313 293.096 507.039C289.859 516.563 287.271 530.983 287.271 539.579C287.271 543.369 286.622 545.957 285.054 548.824C281.543 555.202 277.565 565.928 275.16 575.538C273.313 583.119 273.034 586.539 273.034 600.964C273.125 615.846 273.313 618.53 275.439 626.481C279.878 642.753 285.886 655.418 294.943 667.621L299.104 673.076L298.18 678.16C296.795 685.832 297.81 702.378 300.215 710.055C305.025 725.216 315.838 740.286 328.228 748.79C332.572 751.748 333.404 752.854 334.794 757.477C343.577 785.582 371.033 806.01 405.977 810.358C417.257 811.835 431.124 811.099 441.201 808.511C455.713 804.903 472.447 794.552 480.027 784.567C481.6 782.532 482.985 780.868 483.264 780.868C483.543 780.868 485.573 783.085 487.795 785.861C499.075 800.002 519.873 809.617 542.062 811.007C583.481 813.504 621.287 790.945 631.735 757.482C633.12 752.859 633.952 751.748 638.3 748.795C650.691 740.291 661.504 725.221 666.314 710.06C668.81 702.109 669.825 685.466 668.252 678.256L667.237 673.355L671.489 667.717C697.098 633.605 701.167 587.934 681.937 549.661C679.81 545.409 679.349 543.004 678.882 534.87C677.127 501.402 658.545 470.709 629.791 453.793L623.966 450.281L624.428 444.274C625.443 431.7 620.546 414.043 612.687 401.84C608.435 395.183 600.022 386.679 593.827 382.518C590.777 380.575 588.372 377.987 586.617 374.75C579.777 362.268 570.162 353.302 556.756 346.736C532.812 335.087 505.818 338.415 489.176 355.149L483.259 361.065L477.343 355.149C464.678 342.48 444.433 337.025 425.39 341.186ZM453.033 366.885C461.817 371.229 467.18 379.276 469.859 392.215C471.893 401.922 471.893 743.239 469.859 752.022C464.313 775.226 443.418 788.443 414.481 786.967C408.195 786.688 401.538 785.673 397.286 784.47C376.3 778.463 360.306 763.672 356.795 746.938C354.852 737.785 358.738 721.7 365.208 712.272C376.949 695.077 400.984 691.378 415.501 704.413C421.047 709.406 423.914 715.139 425.208 723.273C426.41 731.132 427.334 733.071 431.032 735.014C435.193 737.323 439.907 736.308 443.144 732.426C445.453 729.651 445.549 729.098 445.087 722.537C444.164 710.334 438.709 698.775 430.018 690.55L426.045 686.851L431.499 681.027C441.759 670.305 447.954 651.815 444.443 642.662C442.317 637.025 433.351 635.264 429.003 639.612C427.247 641.368 426.324 643.682 425.395 649.045C423.731 658.564 421.326 663.282 415.227 668.828C409.219 674.283 404.967 675.764 390.73 677.15C365.4 679.555 348.204 693.792 340.253 718.751L337.757 726.611L333.414 721.71C328.608 716.346 323.986 707.66 322.504 701.281C321.023 694.995 321.302 682.883 322.966 677.246C325.371 669.295 324.448 665.322 318.806 659.03C303.269 641.734 295.78 620.56 296.795 596.803C297.348 582.104 299.662 573.504 306.223 560.286C311.307 550.209 311.307 550.026 311.307 541.705C311.307 526.823 314.818 513.6 322.124 501.118C327.3 492.152 339.691 479.488 348.103 474.678L353.837 471.349L360.585 477.915C367.887 485.216 376.487 490.209 386.006 492.893L391.74 494.466V500.57C391.74 503.898 392.201 508.521 392.755 510.83C395.342 522.2 404.496 534.865 410.042 534.865C414.202 534.865 417.343 533.388 419.104 530.613C421.783 526.64 421.23 522.85 416.978 516.563C410.138 506.303 409.489 495.947 415.034 484.947C418.825 477.549 424.558 473.023 433.524 470.156C440.364 468.03 443.51 464.793 443.51 459.988C443.51 456.568 440.46 452.128 437.04 450.743C428.719 447.323 407.271 458.973 400.061 470.988C397.844 474.687 397.565 474.87 394.053 474.317C388.137 473.485 377.507 467.847 373.808 463.499C368.632 457.583 366.689 452.59 366.136 444.456C364.933 426.337 374.919 408.218 390.821 399.252C395.443 396.664 396.275 395.741 399.878 388.53C404.409 379.377 411.711 371.984 419.844 368.098C427.146 364.678 430.936 363.937 439.907 364.12C446.376 364.389 448.781 364.851 453.033 366.885ZM537.714 364.851C550.008 367.626 560.547 376.313 566.65 388.516C570.258 395.726 571.09 396.65 575.712 399.238C591.797 408.203 601.691 426.51 600.301 444.63C599.748 452.763 597.805 457.573 592.721 463.49C589.022 467.833 578.392 473.475 572.475 474.307C568.964 474.86 568.685 474.678 566.468 470.979C559.257 458.959 537.81 447.314 529.488 450.733C526.068 452.119 523.019 456.558 523.019 459.978C523.019 464.509 526.256 468.112 531.614 469.685C539.104 471.811 546.04 476.433 549.551 481.517C557.04 492.609 557.131 505.279 549.739 516.092C545.761 521.825 545.02 524.413 546.131 528.016C547.608 532.359 551.124 534.855 555.65 534.855C558.887 534.855 559.902 534.302 563.327 530.786C567.579 526.347 572.293 517.381 573.774 510.815C574.327 508.506 574.789 503.884 574.789 500.555V494.452L580.522 492.879C590.046 490.199 598.642 485.207 605.943 477.9L612.692 471.335L618.42 474.663C626.833 479.473 639.224 492.138 644.399 501.104C651.701 513.586 655.217 526.804 655.217 541.691C655.217 550.012 655.217 550.195 660.301 560.272C666.679 573.119 669.084 582.181 669.729 596.048C670.84 619.901 664.366 638.853 648.651 657.713C641.533 666.404 640.979 668.622 643.659 677.587C645.414 683.321 645.414 695.615 643.659 702.085C641.812 709.204 638.021 716.231 633.028 721.777L628.68 726.587L626.646 719.747C623.317 708.747 618.603 700.704 610.835 692.936C600.114 682.21 590.311 678.145 571.451 676.481C560.912 675.558 555.737 673.614 550.465 668.439C545.289 663.446 542.605 658.083 541.408 650.411C540.114 642.09 538.728 639.593 534.38 637.838C528.093 635.158 522.177 638.949 521.436 646.25C520.234 656.698 525.967 671.58 535.03 681.012L540.484 686.837L536.506 690.536C527.815 698.761 522.36 710.319 521.436 722.522C520.975 729.088 521.066 729.641 523.38 732.412C525.967 735.558 530.59 737.034 533.918 736.019C537.805 734.725 540.296 731.027 540.946 725.572C541.961 716.144 544.087 711.431 549.729 705.788C553.428 702.09 556.477 700.055 560.45 698.578C570.806 694.6 584.856 697.102 594.654 704.586C604.823 712.354 612.591 734.817 609.536 747.756C605.559 764.211 589.844 778.631 569.229 784.456C559.152 787.323 543.991 787.876 534.096 785.933C514.313 781.955 500.816 769.66 496.655 752.003C494.621 743.311 494.529 402.831 496.564 392.196C500.171 373.706 510.71 364 527.627 363.908C530.965 363.927 535.496 364.298 537.714 364.851Z" fill="white"/>
<path d="M336.92 555.202C333.409 557.977 332.115 562.6 333.87 566.573C335.443 570.454 337.478 571.657 345.333 573.321C355.313 575.356 362.158 580.623 366.963 589.685C368.719 592.922 369.089 595.048 369.089 602.349C369.089 610.579 368.907 611.594 365.948 617.232C362.158 624.629 362.437 628.602 366.872 632.301C372.047 636.645 378.334 635.168 382.495 628.602C387.026 621.392 389.335 613.162 389.335 603.735C389.426 599.112 389.243 594.119 388.964 592.643C388.502 589.964 388.685 589.776 393.587 588.203C397.098 587.001 401.446 586.448 407.454 586.448C414.943 586.448 417.531 586.818 424.371 589.223C431.028 591.532 432.966 591.902 435.559 591.166C442.399 589.319 444.895 581.181 440.272 575.726C437.685 572.677 428.349 568.886 418.733 567.131C410.042 565.466 395.621 566.577 386.655 569.439L379.258 571.748L374.635 567.313C372.139 564.817 367.978 561.488 365.39 559.916C355.592 553.72 341.634 551.503 336.92 555.202Z" fill="white"/>
<path d="M607.973 537.544C606.492 539.026 605.289 541.056 605.289 541.984C605.102 556.866 602.61 566.669 596.968 575.356L593.274 581.084L588.93 578.867C581.629 575.26 575.063 573.691 566.468 573.691C555.838 573.691 549.455 575.635 546.963 579.516C544.467 583.403 545.116 588.853 548.44 592.09C550.566 594.216 551.398 594.495 556.112 594.124C573.678 592.922 579.873 594.495 587.266 602.446C594.202 609.843 595.587 613.908 595.4 625.928C595.217 637.39 595.958 639.516 601.133 641.739C603.721 642.753 604.924 642.845 607.699 641.83C613.062 640.074 614.909 636.193 615.28 625.466C615.741 615.207 614.077 607.53 610.013 599.949L607.425 595.048L611.124 590.146C615.563 584.23 620.46 574.245 622.495 566.755C623.327 563.706 624.159 556.77 624.438 551.315L624.991 541.426L621.662 538.097C618.978 535.418 617.781 534.86 614.544 534.86C611.484 534.86 610.099 535.418 607.973 537.544Z" fill="white"/>
<path d="M163.774 262.811C155.831 262.811 149.38 268.358 149.38 275.169V414.702C149.38 421.513 155.831 427.054 163.774 427.054C171.712 427.054 178.168 421.503 178.168 414.702L178.163 275.169C178.158 268.358 171.707 262.811 163.774 262.811Z" fill="white"/>
<path d="M136.985 294.25C132.42 294.25 128.699 297.41 128.699 301.297V389.056C128.699 392.948 132.42 396.098 136.985 396.098C141.549 396.098 145.271 392.948 145.271 389.056L145.276 301.297C145.276 297.405 141.56 294.25 136.985 294.25Z" fill="white"/>
<path d="M762.733 228.664C751.161 228.664 741.74 236.789 741.74 246.765V332.435C617.42 297.988 486.176 284.13 357.308 300.605C313.066 306.262 266.807 314.285 224.278 329.284V247.212C224.278 237.24 214.853 229.111 203.275 229.111C191.696 229.111 182.271 237.236 182.271 247.212V442.849C182.271 452.825 191.696 460.936 203.275 460.936C214.853 460.936 224.278 452.826 224.278 442.849V349.891C265.023 334.652 314.596 325.633 358.198 319.812C486.571 302.678 618.093 317.7 741.727 352.623L741.732 442.378C741.732 452.369 751.158 460.479 762.725 460.479C774.313 460.479 783.734 452.369 783.734 442.378V246.778C783.734 236.797 774.309 228.673 762.725 228.673L762.733 228.664Z" fill="white"/>
<path d="M802.239 262.898C794.296 262.898 787.84 268.449 787.84 275.255V414.788C787.84 421.599 794.296 427.15 802.239 427.15C810.177 427.15 816.633 421.599 816.633 414.788V275.243C816.633 268.446 810.172 262.895 802.239 262.895V262.898Z" fill="white"/>
<path d="M829.012 294.102C824.448 294.102 820.727 297.262 820.727 301.149V388.893C820.727 392.785 824.448 395.95 829.012 395.95C833.587 395.95 837.298 392.785 837.298 388.893V301.149C837.298 297.263 833.582 294.102 829.012 294.102Z" fill="white"/>
<defs>
<linearGradient id="paint0_linear_0_1" x1="127" y1="158.5" x2="820.5" y2="836" gradientUnits="userSpaceOnUse">
<stop stop-color="#0047FF"/>
<stop offset="1" stop-color="#00E0FF"/>
</linearGradient>
</defs>
</svg>
